<svg width="251" height="138" viewBox="0 0 251 138" fill="none" xmlns="http://www.w3.org/2000/svg">
<g clip-path="url(#clip0_116_1463)">
<path d="M86.2755 86.067C86.5334 85.5484 86.9624 85.1384 87.3192 84.6802C87.2674 84.7231 87.2135 84.7633 87.1577 84.8008C86.8937 84.9128 86.6495 85.0668 86.4345 85.2566C86.3028 85.4395 86.2139 85.6497 86.1742 85.8716L85.5596 88.2617C85.6801 88.1097 85.8006 87.9602 85.9235 87.8107C85.9158 87.211 86.0357 86.6166 86.2755 86.067Z" fill="#F2F2F2"/>
<path d="M144.301 87.6806C144.261 87.9509 144.179 88.2135 144.06 88.4596C144.065 89.4738 143.928 90.4836 143.653 91.4598C143.54 91.8707 143.455 92.2889 143.4 92.7115C142.831 96.6042 142.281 100.67 143.253 104.442C143.323 104.214 143.45 104.006 143.621 103.84C144.263 103.051 144.516 102.023 144.706 101.025C145.706 95.7649 145.429 90.3986 145.188 85.0252C145.039 84.8617 144.861 84.7276 144.663 84.6296C144.674 84.8637 144.668 85.0982 144.646 85.3315C144.571 86.1198 144.456 86.9039 144.301 87.6806Z" fill="#F2F2F2"/>
<path d="M110.503 86.0742C110.499 85.7595 110.435 85.4484 110.315 85.1578C110.19 84.9214 110.032 84.7038 109.847 84.5114L109.326 83.9181C109.061 90.2177 108.497 96.5341 109.669 102.703C109.859 103.702 110.112 104.729 110.753 105.518C110.925 105.685 111.052 105.892 111.122 106.121C112.086 102.359 111.544 98.2827 110.975 94.3901C110.92 93.9675 110.835 93.5492 110.722 93.1384C110.294 91.5604 110.194 89.9113 110.428 88.2931C110.525 87.5577 110.55 86.8145 110.503 86.0742Z" fill="#F2F2F2"/>
<path d="M113.487 72.7781C114.183 73.9261 114.617 75.2863 115.008 76.5863L115.174 77.1482C115.094 75.2429 115.056 73.3352 115.041 71.4275C114.665 71.7619 114.287 72.0923 113.906 72.4187L113.487 72.7781Z" fill="#F2F2F2"/>
<path d="M119.091 137.069C119.196 135.733 119.093 134.389 118.785 133.085C118.573 132.257 118.245 131.45 118.216 130.598C118.222 130.029 118.291 129.463 118.423 128.91C119.414 123.867 119.84 118.566 118.341 113.651C117.939 112.334 117.406 111.06 116.996 109.748C116.809 110.241 116.582 110.717 116.316 111.171C116.26 110.959 116.157 110.763 116.014 110.596C115.872 110.429 115.695 110.296 115.494 110.207C115.506 110.441 115.5 110.675 115.478 110.908C115.406 111.697 115.294 112.481 115.143 113.257C115.102 113.568 115.002 113.867 114.846 114.138C114.647 114.415 114.379 114.636 114.07 114.779C114.21 115.098 114.349 115.414 114.487 115.744L113.482 116.029C114.142 117.476 113.593 119.128 113.241 120.664C111.98 126.016 113.115 131.732 112.518 137.144L119.091 137.069Z" fill="#F2F2F2"/>
<path d="M115.441 60.502C115.699 59.9835 116.128 59.5735 116.485 59.1152C116.433 59.1581 116.379 59.1984 116.324 59.2358C116.06 59.3479 115.816 59.5018 115.601 59.6917C115.469 59.8746 115.38 60.0847 115.34 60.3067L114.726 62.6967C114.846 62.5448 114.967 62.3953 115.09 62.2457C115.082 61.6461 115.202 61.0517 115.441 60.502Z" fill="#F2F2F2"/>
<path d="M139.668 60.5093C139.665 60.1946 139.601 59.8835 139.48 59.5928C139.356 59.3565 139.198 59.1389 139.013 58.9465L138.492 58.3531C138.232 64.5587 137.682 70.7787 138.786 76.8588C138.981 76.2004 139.179 75.5444 139.374 74.8884C139.672 73.8054 140.06 72.7493 140.534 71.7313C140.42 70.7666 140.281 69.785 140.141 68.8251C140.086 68.4025 140.001 67.9843 139.888 67.5734C139.46 65.9954 139.36 64.3464 139.594 62.7281C139.691 61.9927 139.716 61.2496 139.668 60.5093Z" fill="#F2F2F2"/>
<path d="M129.157 107.918L128.332 136.968L130.502 136.944C130.12 133.408 129.946 129.854 129.981 126.298C129.981 125.263 130.017 124.217 129.803 123.206C129.651 122.499 129.386 121.822 129.241 121.113C129.099 120.264 129.045 119.404 129.079 118.544L129.157 107.918Z" fill="#F2F2F2"/>
<path d="M110.514 107.935C110.548 107.853 110.582 107.776 110.613 107.694C110.727 107.399 110.828 107.103 110.922 106.804L110.903 106.837C110.712 107.151 110.505 107.452 110.29 107.749C110.367 107.807 110.442 107.87 110.514 107.935Z" fill="#F2F2F2"/>
<path d="M44.9395 75.4624C44.9359 75.1477 44.8721 74.8366 44.7515 74.5459C44.6267 74.3096 44.4693 74.092 44.2839 73.8996L43.7633 73.3063C43.4981 79.6059 42.9341 85.9223 44.1055 92.0917C44.296 93.0902 44.5491 94.1176 45.1902 94.9062C45.3617 95.0731 45.4885 95.2804 45.559 95.5092C46.5232 91.7468 45.9808 87.6709 45.412 83.7783C45.3606 83.3559 45.2801 82.9377 45.1709 82.5265C44.7388 80.9494 44.6347 79.3003 44.8648 77.6813C44.9622 76.9459 44.9873 76.2027 44.9395 75.4624Z" fill="#F2F2F2"/>
<path d="M44.9517 97.3228C44.9855 97.2408 45.0192 97.1636 45.0505 97.0816C45.1638 96.7874 45.2651 96.4907 45.3591 96.1917L45.3398 96.2254C45.1494 96.539 44.9421 96.8404 44.7275 97.1371C44.8047 97.1949 44.8794 97.2577 44.9517 97.3228Z" fill="#F2F2F2"/>
<path d="M34.4278 122.871C34.2864 127.911 34.1434 132.952 33.9988 137.993L35.0328 137.981C34.8786 137.339 34.6496 136.715 34.517 136.066C34.3752 135.217 34.321 134.357 34.3555 133.497L34.4278 122.871Z" fill="#F2F2F2"/>
<path d="M49.9145 137.438C49.6049 137.295 49.3375 137.074 49.1383 136.797C48.9827 136.525 48.8819 136.226 48.8419 135.916C48.6904 135.139 48.5786 134.355 48.5068 133.567C48.4843 133.334 48.4786 133.099 48.4899 132.865C48.2898 132.955 48.1122 133.088 47.97 133.255C47.8278 133.422 47.7246 133.618 47.668 133.83C46.9633 132.582 46.5035 131.211 46.3133 129.79C46.241 130.031 46.1663 130.297 46.0723 130.55C45.5709 132.043 44.843 133.488 44.6984 135.055C44.6289 136 44.7102 136.95 44.9394 137.87L49.7265 137.819L49.9145 137.438Z" fill="#F2F2F2"/>
<path d="M53.0625 129.474C53.1565 129.773 53.2577 130.07 53.371 130.364C53.4024 130.446 53.4361 130.523 53.4699 130.605C53.5422 130.54 53.6169 130.478 53.694 130.42C53.4795 130.123 53.2722 129.822 53.0818 129.508L53.0625 129.474Z" fill="#F2F2F2"/>
<path d="M87.5964 134.491C87.2583 133.054 87.0271 131.594 86.9046 130.123C86.5222 126.586 86.1397 123.048 85.7573 119.511C85.7452 119.417 85.7356 119.326 85.7259 119.231C85.7115 119.277 85.6994 119.323 85.685 119.369C85.3933 120.225 84.8148 120.949 84.2387 121.653C83.6626 122.357 82.9419 123.083 82.0959 122.878C81.749 122.764 81.4343 122.569 81.1775 122.309L79.2492 120.642C78.8683 120.321 78.4899 119.99 78.1139 119.651C78.097 121.978 78.044 124.306 77.9235 126.628C77.8849 127.352 77.8246 128.131 77.4775 128.775C78.1891 130.986 78.5835 133.288 78.649 135.61C78.6659 136.239 78.649 136.866 78.6297 137.496L84.2797 137.436H84.3134L88.563 137.39C88.2087 136.44 87.8519 135.482 87.5964 134.491Z" fill="#F2F2F2"/>
<path d="M78.0511 110.482C78.1717 110.631 78.2922 110.781 78.4151 110.933L77.8005 108.552C77.7608 108.33 77.6719 108.12 77.5401 107.937C77.3251 107.747 77.081 107.593 76.817 107.481C76.7612 107.444 76.7073 107.404 76.6555 107.361C77.0123 107.819 77.4413 108.229 77.6992 108.747C77.9376 109.294 78.0575 109.885 78.0511 110.482Z" fill="#F2F2F2"/>
<path d="M85.0391 99.8866C85.191 101.56 85.2801 103.241 85.3645 104.922C85.4489 106.603 85.5356 108.241 85.62 109.9C85.8167 108.617 86.1149 107.352 86.5119 106.116C86.1648 105.472 86.1045 104.705 86.0659 103.97C85.9454 101.647 85.8924 99.3198 85.8755 96.9924C85.5067 97.3228 85.1331 97.646 84.7571 97.9571C84.8973 98.5927 84.9915 99.2375 85.0391 99.8866Z" fill="#F2F2F2"/>
<path d="M53.0169 117.07C52.4481 120.963 51.8985 125.029 52.8699 128.801C52.9403 128.573 53.0672 128.365 53.2387 128.198C53.8798 127.41 54.1329 126.382 54.3233 125.384C55.4948 119.215 54.9308 112.898 54.6656 106.599L54.1522 107.192C53.9624 107.38 53.8002 107.595 53.6701 107.829C53.5483 108.116 53.482 108.423 53.4749 108.735C53.4275 109.474 53.4525 110.216 53.5496 110.949C53.7881 112.572 53.6904 114.226 53.2628 115.809C53.1516 116.223 53.0694 116.645 53.0169 117.07Z" fill="#F2F2F2"/>
<path d="M140.179 136.84L142.069 136.818C141.062 131.013 142.515 124.779 141.146 118.971C140.931 118.067 140.664 117.119 140.596 116.2C140.114 117.483 139.562 118.747 139.437 120.102C139.218 122.451 140.322 124.699 140.731 127.019C141.295 130.22 140.531 133.483 140.191 136.714C140.187 136.77 140.184 136.799 140.179 136.84Z" fill="#F2F2F2"/>
<path d="M205.159 133.929C202.97 127.403 205.159 120.126 203.575 113.429C203.211 111.892 202.662 110.228 203.334 108.793L202.329 108.487C202.466 108.169 202.606 107.853 202.746 107.522C202.55 107.423 202.369 107.298 202.206 107.151L201.468 113.955C201.346 115.426 201.115 116.885 200.777 118.322C200.36 119.929 199.682 121.458 199.198 123.037C197.903 127.275 198.046 131.797 198.742 136.196L205.973 136.116C205.708 135.393 205.407 134.667 205.159 133.929Z" fill="#F2F2F2"/>
<path d="M201.777 69.4184L201.796 69.3509L201.883 69.0687C201.676 68.8977 201.448 68.7542 201.203 68.6418C201.148 68.6044 201.094 68.5641 201.042 68.5212C201.281 68.8251 201.548 69.1097 201.777 69.4184Z" fill="#F2F2F2"/>
<path d="M177.439 90.6445C177.533 90.9436 177.635 91.2402 177.748 91.5345C177.779 91.6165 177.813 91.6937 177.847 91.7757C177.919 91.7105 177.994 91.6478 178.071 91.5899C177.856 91.2933 177.649 90.9918 177.459 90.6783L177.439 90.6445Z" fill="#F2F2F2"/>
<path d="M207.143 95.4778C207.883 91.59 207.931 87.6443 207.799 83.6793C207.623 83.8405 207.413 83.9588 207.184 84.0249C206.955 84.091 206.714 84.1032 206.48 84.0604L206.439 84.0483C206.38 84.6792 206.263 85.3034 206.09 85.9126C205.976 86.3235 205.892 86.7418 205.836 87.1644C205.268 91.057 204.718 95.1233 205.689 98.8953C205.76 98.6666 205.887 98.4592 206.058 98.2923C206.699 97.5037 206.953 96.4763 207.143 95.4778Z" fill="#F2F2F2"/>
<path d="M99.9667 137.276C99.9667 136.013 99.9748 134.748 99.9908 133.483C99.9539 134.75 99.9185 136.015 99.8848 137.279L99.9667 137.276Z" fill="#F2F2F2"/>
<path d="M250.176 32.6508C250.015 31.7407 249.824 30.8476 249.604 29.9713C247.266 20.5123 241.792 12.9634 231.767 8.8778C230.908 8.5289 230.014 8.20732 229.087 7.91309C226.977 7.24253 224.821 6.72665 222.637 6.36954C201.608 2.85075 183.926 4.52453 167.986 7.69844C167.087 7.8745 166.195 8.0602 165.305 8.24832C142.961 12.973 123.933 20.2928 103.63 19.6537C102.741 19.6271 101.847 19.5837 100.952 19.5258C92.1014 18.9374 82.9708 16.7692 73.1918 12.1578C61.6339 6.70961 49.8808 8.54015 39.2774 15.0279C33.2924 18.6841 27.6738 23.8261 22.6625 29.9809L22.6457 30.0002C21.9386 30.8685 21.2444 31.7528 20.5631 32.6532C4.25669 54.3303 -4.79678 86.7447 2.62967 111.863C2.89642 112.769 3.18567 113.663 3.49742 114.545C5.64268 120.669 8.83405 126.298 13.2113 131.155C15.7513 133.965 19.0089 136.029 22.6336 137.125C23.2555 137.315 23.8894 137.474 24.5306 137.607C24.7114 134.558 24.5017 131.51 23.6122 128.596C23.1301 127.012 22.4504 125.488 22.0334 123.881C21.6953 122.445 21.4641 120.985 21.3416 119.514C20.9592 115.976 20.5767 112.439 20.1943 108.902C19.9532 106.717 19.7122 104.524 19.7773 102.33C19.8428 100.007 20.2372 97.7061 20.9487 95.4947C20.6016 94.8507 20.5414 94.0838 20.5028 93.3482C20.3823 91.0257 20.3293 88.6983 20.3124 86.3709C19.9364 86.7053 19.5579 87.0358 19.1771 87.3622L17.2367 89.0287C16.9799 89.2885 16.6652 89.4836 16.3183 89.5979C15.4723 89.8029 14.7227 89.0504 14.1755 88.3727C13.6283 87.695 13.0281 86.9449 12.7293 86.0887C12.5006 85.2933 12.4117 84.4642 12.4665 83.6384C12.4858 82.5796 12.5388 81.5232 12.5943 80.4669L13.0571 71.6518C13.1438 69.9635 13.2306 68.2897 13.3825 66.616C13.4909 65.4101 13.6452 64.1825 14.2647 63.155C15.4289 61.2256 17.9261 60.5503 20.1943 60.7143C20.1374 60.6028 20.106 60.4801 20.1022 60.355C20.0985 60.2299 20.1225 60.1055 20.1726 59.9908C20.314 59.7748 20.5173 59.6067 20.7559 59.5084L24.1015 57.7165C24.3391 57.5656 24.6078 57.4708 24.8873 57.4391C25.0354 57.4341 25.1826 57.4647 25.3164 57.5284L25.9648 57.0749C26.1101 56.9616 26.2729 56.8728 26.4469 56.8121C26.6645 56.7573 26.8934 56.7683 27.1049 56.8434C27.2684 56.5182 27.3628 56.1626 27.3821 55.7991C27.3683 55.3465 27.2719 54.9002 27.0977 54.4823C26.3217 53.8944 25.6908 53.1363 25.2537 52.2662C24.8166 51.396 24.5849 50.4372 24.5764 49.4633C23.8533 49.0582 22.9229 48.829 22.6288 47.9753C22.4287 47.3964 22.6673 46.7549 22.5854 46.1471C22.4253 45.9894 22.3033 45.7972 22.2287 45.5852C22.0214 44.9822 22.2913 44.3118 22.1804 43.6847C22.1178 43.3422 21.9394 43.0022 22.0093 42.6597C22.0801 42.4171 22.2111 42.1964 22.3902 42.0182L24.7596 39.2084C25.2826 38.591 25.8226 37.9567 26.5409 37.5877C28.2619 36.705 30.3228 37.5877 32.2559 37.5877C32.9043 37.5877 33.5744 37.4888 34.1843 37.6962C34.6226 37.8766 35.0257 38.133 35.375 38.4535L38.0264 40.6241C38.9183 41.3477 39.88 42.2111 39.9668 43.3591C39.9874 43.7066 39.9365 44.0546 39.8174 44.3817C40.1251 44.7767 40.3148 45.2508 40.3645 45.7492C40.4248 46.5451 40.0391 47.3048 39.5956 47.968C38.9296 48.9577 38.1168 49.8401 37.1852 50.5848C36.9671 51.7287 36.4393 52.7907 35.6594 53.655C35.8338 54.497 36.0624 55.3268 36.344 56.1392C36.3506 56.1524 36.3563 56.1661 36.3608 56.1802C36.5862 56.1932 36.8033 56.2692 36.9875 56.3996C37.178 56.5412 37.3525 56.7029 37.5082 56.882C37.5915 56.7492 37.7147 56.6462 37.8601 56.5878C38.2169 56.4431 38.617 56.6071 38.9665 56.7662C40.0295 57.2486 41.1118 57.7502 41.9771 58.5341C42.2929 58.8207 42.5585 59.1582 42.7629 59.5325C43.9786 59.3529 45.2175 59.6324 46.2387 60.3164C48.0609 61.5657 48.8106 63.8472 49.4445 65.9648L50.8642 70.7136C51.4861 72.795 52.1128 74.8956 52.2575 77.0614C52.39 79.0342 52.1201 81.0071 51.8501 82.9631C51.4765 85.6691 52.3563 88.6404 52.3683 91.373C52.3683 92.0748 52.3683 92.7838 52.3515 93.4953C53.3332 92.8856 54.4972 92.639 55.6417 92.7983C55.8461 92.424 56.1117 92.0865 56.4274 91.7998C57.2928 91.016 58.375 90.5192 59.438 90.032C59.7875 89.8728 60.1877 89.7088 60.5444 89.8535C60.6898 89.912 60.813 90.015 60.8963 90.1478C61.052 89.9687 61.2266 89.807 61.417 89.6654C61.6012 89.535 61.8184 89.4589 62.0437 89.4459C62.0483 89.4319 62.0539 89.4182 62.0606 89.4049C62.3421 88.5925 62.5708 87.7628 62.7451 86.9208C61.9652 86.0565 61.4374 84.9945 61.2193 83.8506C60.2877 83.1059 59.4749 82.2235 58.8089 81.2338C58.3654 80.5706 57.9797 79.8108 58.04 79.015C58.0897 78.5166 58.2794 78.0425 58.5872 77.6475C58.468 77.3204 58.4172 76.9724 58.4377 76.6249C58.5245 75.4769 59.4862 74.6183 60.3781 73.8899L63.0295 71.7193C63.3788 71.3987 63.7819 71.1424 64.2203 70.962C64.8325 70.7546 65.5026 70.8535 66.1486 70.8535C68.0769 70.8535 70.1426 69.9756 71.8637 70.8535C72.5868 71.2225 73.1219 71.8568 73.6449 72.4742L76.0144 75.2839C76.1934 75.4622 76.3244 75.6829 76.3952 75.9255C76.4627 76.2679 76.2868 76.608 76.2241 76.9505C76.1132 77.5775 76.3832 78.248 76.1759 78.851C76.1012 79.063 75.9792 79.2552 75.8191 79.4129C75.7372 80.0207 75.9758 80.6622 75.7757 81.241C75.4817 82.0948 74.5561 82.3239 73.8281 82.7291C73.8166 83.699 73.5837 84.6535 73.1471 85.5196C72.7106 86.3857 72.0819 87.1405 71.3093 87.7263C71.1351 88.1443 71.0387 88.5905 71.0248 89.0432C71.0442 89.4067 71.1386 89.7623 71.302 90.0875C71.5135 90.0123 71.7424 90.0014 71.9601 90.0561C72.134 90.1168 72.2969 90.2056 72.4422 90.319L73.0906 90.7724C73.2244 90.7087 73.3715 90.6781 73.5196 90.6832C73.7992 90.7148 74.0679 90.8097 74.3054 90.9605L77.651 92.7525C77.7972 92.828 77.9346 92.9194 78.0608 93.025C78.0873 92.3763 78.1162 91.7251 78.15 91.0763L78.62 82.2636C78.7068 80.5754 78.7936 78.9016 78.9454 77.2278C79.0539 76.0219 79.2082 74.7943 79.8276 73.7669C80.9919 71.8375 83.489 71.1622 85.7572 71.3262C85.7004 71.2147 85.6689 71.092 85.6652 70.9669C85.6614 70.8417 85.6855 70.7174 85.7355 70.6026C85.8769 70.3867 86.0803 70.2186 86.3188 70.1203L89.6645 68.3283C89.902 68.1775 90.1707 68.0826 90.4503 68.051C90.5984 68.0459 90.7455 68.0765 90.8793 68.1402L91.5277 67.6868C91.673 67.5734 91.8358 67.4846 92.0098 67.4239C92.2274 67.3692 92.4564 67.3801 92.6678 67.4553C92.8313 67.1301 92.9257 66.7745 92.945 66.411C92.9312 65.9583 92.8348 65.5121 92.6606 65.0941C91.8846 64.5063 91.2538 63.7481 90.8167 62.878C90.3796 62.0079 90.1478 61.049 90.1393 60.0752C89.4162 59.67 88.4858 59.4409 88.1917 58.5871C87.9917 58.0083 88.2303 57.3668 88.1483 56.759C87.9883 56.6012 87.8663 56.4091 87.7916 56.1971C87.5843 55.5941 87.8543 54.9236 87.7434 54.2966C87.6631 54.0254 87.6019 53.749 87.5602 53.4693C87.297 53.964 87.0947 54.4888 86.9576 55.0322C86.6177 56.3996 86.678 57.8322 86.4755 59.2263C86.4032 59.7086 86.2658 60.2247 85.8585 60.478C85.5427 60.6757 85.1353 60.6589 84.7955 60.8012C84.2266 61.0423 83.9109 61.6694 83.8313 62.2796C83.7518 62.8898 83.8482 63.5096 83.8482 64.127C83.8482 65.7405 83.0744 67.4094 81.6668 68.1957C79.8132 69.2328 77.5112 68.5454 75.5082 67.8412C76.4008 67.5189 77.1936 66.9685 77.8077 66.2445L75.6046 65.7984C76.8841 65.1991 78.0677 64.4132 79.1166 63.4662C79.5082 63.1541 79.8163 62.7497 80.0132 62.2892C80.2543 61.6115 80.0301 60.8421 80.2543 60.1644C80.6279 59.0044 82.0476 58.5654 82.7707 57.5862C83.4047 56.7325 83.4264 55.5869 83.424 54.5257L83.4119 50.4787C83.4119 49.3138 83.4866 47.9704 84.4146 47.2638C85.4487 46.4751 86.9142 46.9237 88.2158 46.9165C89.5873 46.9165 90.8938 46.3449 92.2581 46.193C93.5452 46.0458 95.6929 46.9478 95.6567 47.9704C96.3735 48.0973 97.0985 48.1723 97.8261 48.1947C98.4745 48.1947 99.1446 48.0959 99.7544 48.3033C100.193 48.4836 100.596 48.74 100.945 49.0606L103.597 51.2312C104.488 51.9547 105.45 52.8181 105.525 53.9661C105.545 54.3137 105.495 54.6617 105.375 54.9887C105.683 55.3838 105.873 55.8579 105.923 56.3562C105.983 57.1521 105.597 57.9118 105.154 58.5751C104.488 59.5648 103.675 60.4472 102.743 61.1919C102.525 62.3357 101.997 63.3977 101.218 64.2621C101.392 65.104 101.621 65.9338 101.902 66.7462C101.909 66.7594 101.914 66.7731 101.919 66.7872C102.144 66.8002 102.361 66.8762 102.546 67.0067C102.736 67.1482 102.911 67.3099 103.066 67.489C103.15 67.3562 103.273 67.2533 103.418 67.1948C103.775 67.0501 104.175 67.2141 104.525 67.3733C105.461 67.7614 106.351 68.255 107.176 68.8445C107.176 68.7962 107.176 68.7456 107.176 68.6973C107.195 67.6386 107.248 66.5822 107.304 65.5258L107.786 56.6987C107.873 55.0104 107.959 53.3367 108.111 51.6629C108.22 50.457 108.374 49.2294 108.993 48.202C110.158 46.2725 112.655 45.5972 114.923 45.7612C114.866 45.6497 114.835 45.527 114.831 45.4019C114.827 45.2768 114.851 45.1524 114.901 45.0377C115.043 44.8218 115.246 44.6536 115.485 44.5554L118.83 42.7634C119.068 42.6125 119.337 42.5177 119.616 42.486C119.764 42.481 119.911 42.5116 120.045 42.5753L120.694 42.1219C120.839 42.0085 121.002 41.9197 121.176 41.859C121.393 41.8043 121.622 41.8152 121.834 41.8903C121.997 41.5651 122.092 41.2095 122.111 40.846C122.097 40.3934 122.001 39.9471 121.826 39.5292C121.05 38.9414 120.42 38.1832 119.983 37.3131C119.545 36.443 119.314 35.4841 119.305 34.5103C118.582 34.1051 117.652 33.876 117.358 33.0222C117.158 32.4434 117.396 31.8018 117.314 31.1941C117.154 31.0363 117.032 30.8441 116.957 30.6321C116.75 30.0292 117.02 29.3587 116.909 28.7316C116.847 28.3892 116.668 28.0491 116.738 27.7066C116.809 27.464 116.94 27.2434 117.119 27.0651L119.488 24.2554C120.011 23.6379 120.551 23.0036 121.27 22.6346C122.991 21.7519 125.052 22.6346 126.985 22.6346C127.633 22.6346 128.303 22.5357 128.913 22.7432C129.351 22.9235 129.755 23.1799 130.104 23.5005L132.755 25.6711C133.647 26.3946 134.609 27.258 134.684 28.406C134.704 28.7535 134.653 29.1016 134.534 29.4286C134.842 29.8236 135.032 30.2977 135.081 30.7961C135.142 31.592 134.756 32.3517 134.312 33.015C133.646 34.0047 132.834 34.887 131.902 35.6317C131.684 36.7756 131.156 37.8376 130.376 38.702C130.551 39.5439 130.779 40.3737 131.061 41.1861C131.067 41.1993 131.073 41.213 131.078 41.2271C131.303 41.2401 131.52 41.3161 131.704 41.4466C131.895 41.5881 132.069 41.7498 132.225 41.9289C132.308 41.7961 132.431 41.6931 132.577 41.6347C132.934 41.49 133.334 41.654 133.683 41.8132C134.746 42.2955 135.829 42.7972 136.694 43.581C137.01 43.8676 137.275 44.2051 137.48 44.5795C138.699 44.3968 139.943 44.6763 140.967 45.3633C142.79 46.6126 143.539 48.8942 144.173 51.0117L145.593 55.7605C146.215 57.8419 146.842 59.9426 146.986 62.1083C147.109 63.9509 146.88 65.796 146.63 67.6265C146.69 67.5638 146.75 67.5011 146.818 67.4408C147.683 66.657 148.765 66.1601 149.828 65.673C150.178 65.5138 150.578 65.3498 150.935 65.4945C151.08 65.5529 151.203 65.6559 151.286 65.7887C151.442 65.6096 151.617 65.4479 151.807 65.3064C151.991 65.1759 152.208 65.0999 152.434 65.0869C152.438 65.0728 152.444 65.0591 152.451 65.0459C152.732 64.2335 152.961 63.4037 153.135 62.5618C152.355 61.6974 151.828 60.6354 151.609 59.4915C150.678 58.7468 149.865 57.8645 149.199 56.8748C148.756 56.2115 148.37 55.4518 148.43 54.6559C148.48 54.1575 148.67 53.6834 148.977 53.2884C148.858 52.9614 148.807 52.6133 148.828 52.2658C148.915 51.1178 149.876 50.2592 150.756 49.5309L153.408 47.3603C153.757 47.0397 154.16 46.7833 154.598 46.603C155.211 46.3955 155.881 46.4944 156.527 46.4944C157.254 46.472 157.979 46.397 158.696 46.2701C158.66 45.2475 160.808 44.3407 162.095 44.4927C163.457 44.6494 164.765 45.2162 166.137 45.2162C167.439 45.2162 168.904 44.7748 169.938 45.5635C170.866 46.2701 170.943 47.6135 170.941 48.7784L170.95 52.8398C170.95 53.901 170.97 55.0466 171.604 55.9004C172.293 56.8313 173.612 57.2775 174.057 58.3122C174.602 56.9109 175.34 55.611 176.559 54.7765C177.574 54.0907 178.806 53.8054 180.018 53.9758C180.223 53.6014 180.488 53.2639 180.804 52.9773C181.67 52.1935 182.752 51.6967 183.815 51.2095C184.164 51.0503 184.564 50.8863 184.921 51.031C185.067 51.0895 185.19 51.1925 185.273 51.3252C185.429 51.1462 185.603 50.9844 185.794 50.8429C185.978 50.7125 186.195 50.6364 186.42 50.6234C186.425 50.6093 186.431 50.5956 186.437 50.5824C186.719 49.77 186.948 48.9402 187.122 48.0983C186.342 47.2339 185.814 46.1719 185.596 45.0281C184.664 44.2834 183.852 43.401 183.186 42.4113C182.742 41.748 182.357 40.9883 182.417 40.1924C182.467 39.6941 182.656 39.22 182.964 38.825C182.845 38.4979 182.794 38.1499 182.814 37.8024C182.901 36.6543 183.863 35.7957 184.743 35.0674L187.394 32.8968C187.744 32.5762 188.147 32.3198 188.585 32.1395C189.197 31.9321 189.867 32.0309 190.513 32.0309C191.241 32.0085 191.966 31.9335 192.683 31.8067C192.647 30.7841 194.794 29.8772 196.081 30.0292C197.443 30.1859 198.752 30.7527 200.124 30.7527C201.425 30.7527 202.891 30.3113 203.925 31.1C204.853 31.8066 204.93 33.15 204.928 34.3149L204.937 38.3691C204.937 39.4303 204.956 40.5759 205.59 41.4297C206.314 42.4089 207.733 42.8478 208.107 44.0079C208.324 44.688 208.107 45.455 208.348 46.1327C208.545 46.5932 208.853 46.9976 209.245 47.3096C209.784 47.7968 210.36 48.2419 210.968 48.6409C211.067 48.3201 211.221 48.0189 211.424 47.751C211.304 47.4239 211.254 47.0759 211.274 46.7284C211.361 45.5804 212.323 44.7218 213.202 43.9934L215.854 41.8228C216.203 41.5022 216.606 41.2459 217.045 41.0655C217.657 40.8581 218.327 40.957 218.973 40.957C220.901 40.957 222.967 40.0791 224.688 40.957C225.411 41.326 225.946 41.9603 226.469 42.5777L228.839 45.3874C229.018 45.5657 229.149 45.7864 229.22 46.029C229.287 46.3714 229.111 46.7115 229.048 47.054C228.938 47.681 229.208 48.3515 229 48.9545C228.926 49.1665 228.804 49.3587 228.643 49.5164C228.562 50.1242 228.8 50.7657 228.6 51.3445C228.306 52.1983 227.38 52.4274 226.652 52.8326C226.641 53.8025 226.408 54.757 225.971 55.6231C225.535 56.4892 224.906 57.244 224.134 57.8298C223.959 58.2478 223.863 58.694 223.849 59.1467C223.869 59.5102 223.963 59.8658 224.126 60.191C224.338 60.1158 224.567 60.1049 224.784 60.1596C224.958 60.2203 225.121 60.3091 225.267 60.4225L225.915 60.8759C226.049 60.8122 226.196 60.7816 226.344 60.7867C226.624 60.8183 226.892 60.9132 227.13 61.064L230.475 62.856C230.714 62.9543 230.917 63.1224 231.059 63.3383C231.109 63.4531 231.133 63.5774 231.129 63.7025C231.125 63.8277 231.094 63.9504 231.037 64.0619C233.305 63.8979 235.802 64.5708 236.967 66.5026C237.586 67.53 237.74 68.7673 237.849 69.9635C238.001 71.6373 238.09 73.3183 238.174 74.9993L238.63 83.8361C238.685 84.8925 238.738 85.9488 238.758 87.0076C238.812 87.8335 238.723 88.6626 238.495 89.458C238.203 90.3142 237.625 91.0377 237.049 91.742C236.472 92.4462 235.752 93.1721 234.906 92.9671C234.559 92.8528 234.244 92.6577 233.987 92.398L232.047 90.7314C231.666 90.4098 231.288 90.0794 230.912 89.7402C230.895 92.0675 230.842 94.3949 230.721 96.7175C230.683 97.441 230.622 98.22 230.275 98.864C230.987 101.075 231.381 103.377 231.447 105.699C231.465 107.592 231.359 109.485 231.129 111.364C231.331 110.935 231.534 110.501 231.738 110.062C242.209 87.6757 254.288 55.4012 250.176 32.6508Z" fill="#F2F2F2"/>
<path d="M20.621 75.2694L20.0063 77.6595C20.1269 77.5076 20.2474 77.358 20.3703 77.2085C20.3595 76.6096 20.4762 76.0152 20.7126 75.4648C20.9705 74.9462 21.3996 74.5362 21.7563 74.078C21.7045 74.1209 21.6506 74.1611 21.5948 74.1986C21.3308 74.3107 21.0867 74.4646 20.8717 74.6544C20.7434 74.8382 20.6577 75.0483 20.621 75.2694Z" fill="#F2F2F2"/>
<path d="M168.441 86.1224C168.562 86.272 168.682 86.4215 168.805 86.5734L168.191 84.193C168.151 83.9711 168.062 83.7609 167.93 83.578C167.715 83.3882 167.471 83.2343 167.207 83.1222C167.151 83.0847 167.097 83.0445 167.046 83.0016C167.402 83.4598 167.831 83.8698 168.089 84.3884C168.328 84.935 168.448 85.526 168.441 86.1224Z" fill="#F2F2F2"/>
<path d="M206.289 100.699C206.362 100.634 206.436 100.572 206.513 100.514C206.299 100.217 206.092 99.9155 205.901 99.602L205.882 99.5682C205.976 99.8673 206.077 100.164 206.19 100.458C206.222 100.54 206.248 100.617 206.289 100.699Z" fill="#F2F2F2"/>
<path d="M143.453 105.115C143.547 105.414 143.648 105.711 143.761 106.005C143.793 106.087 143.826 106.164 143.86 106.246C143.932 106.181 144.007 106.119 144.084 106.061C143.87 105.764 143.662 105.463 143.472 105.149L143.453 105.115Z" fill="#F2F2F2"/>
<path d="M164.235 58.387C164.224 59.3569 163.991 60.3114 163.554 61.1775C163.118 62.0436 162.489 62.7983 161.716 63.3842C161.542 63.8021 161.446 64.2484 161.432 64.701C161.451 65.0645 161.546 65.4201 161.709 65.7453C161.921 65.6702 162.149 65.6593 162.367 65.714C162.541 65.7747 162.704 65.8635 162.849 65.9768L163.498 66.4303C163.631 66.3666 163.779 66.336 163.927 66.341C164.206 66.3727 164.475 66.4675 164.712 66.6184L168.058 68.4103C168.297 68.5086 168.5 68.6768 168.641 68.8927C168.691 69.0074 168.715 69.1318 168.712 69.2569C168.708 69.382 168.677 69.5047 168.62 69.6162C169.337 69.5636 170.059 69.5992 170.767 69.7224C171.024 68.3746 171.358 67.0427 171.768 65.7333C170.967 64.8181 170.529 63.6407 170.538 62.4243C170.538 61.8069 170.637 61.187 170.555 60.5769C170.473 59.9667 170.158 59.3348 169.591 59.0984C169.246 58.9561 168.844 58.973 168.528 58.7753C168.121 58.5341 167.983 57.9987 167.911 57.5235C167.701 56.1295 167.762 54.6969 167.429 53.3294C167.292 52.7861 167.09 52.2613 166.826 51.7666C166.785 52.0463 166.723 52.3227 166.643 52.5938C166.532 53.2209 166.802 53.8914 166.595 54.4943C166.52 54.7063 166.398 54.8985 166.238 55.0563C166.156 55.6641 166.395 56.3056 166.195 56.8844C165.889 57.7478 164.963 57.977 164.235 58.387Z" fill="#F2F2F2"/>
<path d="M177.394 78.2408C176.825 82.1334 176.275 86.1997 177.247 89.9717C177.317 89.743 177.444 89.5356 177.615 89.3688C178.257 88.5801 178.51 87.5527 178.7 86.5542C179.872 80.3848 179.307 74.0684 179.042 67.7688L178.529 68.3621C178.339 68.5506 178.177 68.765 178.047 68.9988C177.925 69.286 177.859 69.5937 177.852 69.9056C177.804 70.6443 177.829 71.3859 177.926 72.1197C178.165 73.7421 178.067 75.3963 177.639 76.9794C177.528 77.3936 177.446 77.8151 177.394 78.2408Z" fill="#F2F2F2"/>
<path d="M173.725 98.2152C173.555 98.3553 173.357 98.4562 173.144 98.5108C172.931 98.5654 172.709 98.5724 172.493 98.5312C172.146 98.4168 171.832 98.2218 171.575 97.962L169.646 96.2954C169.266 95.9739 168.887 95.6435 168.511 95.3042C168.494 97.6316 168.441 99.9589 168.321 102.281C168.282 103.005 168.222 103.784 167.875 104.428C168.586 106.639 168.981 108.941 169.046 111.263C169.104 113.458 168.868 115.65 168.629 117.835C168.248 121.372 167.866 124.91 167.482 128.447C167.359 129.918 167.128 131.378 166.79 132.815C166.457 134.095 165.959 135.325 165.525 136.577L167.986 136.551L171.119 136.517H171.505L176.808 136.459C176.809 136.453 176.809 136.448 176.808 136.442C177.218 134.122 178.321 131.874 178.102 129.525C177.958 127.957 177.23 126.513 176.728 125.02C174.54 118.494 176.728 111.217 175.145 104.52C174.781 102.983 174.231 101.319 174.904 99.8842L173.898 99.5779C174.036 99.2595 174.176 98.9436 174.315 98.6132C174.1 98.5097 173.901 98.3757 173.725 98.2152Z" fill="#F2F2F2"/>
<path d="M154.384 131.794C154.393 133.425 154.404 135.055 154.415 136.686H154.521L154.384 131.794Z" fill="#F2F2F2"/>
<path d="M216.813 126.247C216.83 128.711 216.846 131.171 216.862 133.63L217.021 133.536C216.95 131.106 216.881 128.677 216.813 126.247Z" fill="#F2F2F2"/>
<path d="M210.97 49.9988L210.563 50.0808C210.79 50.3505 211.044 50.5969 211.32 50.8164C211.174 50.5575 211.057 50.2833 210.97 49.9988Z" fill="#F2F2F2"/>
<path d="M188.371 117.324L188.443 127.95C188.478 128.81 188.423 129.67 188.282 130.519C188.137 131.228 187.872 131.905 187.72 132.612C187.505 133.623 187.532 134.669 187.542 135.704C187.542 135.911 187.542 136.119 187.542 136.326L188.908 136.312C188.73 129.983 188.551 123.654 188.371 117.324Z" fill="#F2F2F2"/>
<path d="M230.871 80.5753C230.991 80.7249 231.112 80.8744 231.235 81.0263L230.62 78.6362C230.58 78.4143 230.491 78.2041 230.36 78.0212C230.145 77.8314 229.901 77.6775 229.637 77.5654C229.581 77.5279 229.527 77.4877 229.475 77.4448C229.832 77.9031 230.261 78.3131 230.519 78.8316C230.759 79.3812 230.878 79.9757 230.871 80.5753Z" fill="#F2F2F2"/>
<path d="M198.222 43.9162C198.21 44.8861 197.977 45.8406 197.541 46.7067C197.104 47.5728 196.476 48.3275 195.703 48.9134C195.529 49.3313 195.432 49.7776 195.418 50.2302C195.438 50.5937 195.532 50.9493 195.696 51.2745C195.907 51.1994 196.136 51.1885 196.354 51.2432C196.528 51.3039 196.691 51.3927 196.836 51.5061L197.484 51.9595C197.618 51.8958 197.765 51.8652 197.913 51.8702C198.193 51.9019 198.461 51.9967 198.699 52.1476L202.045 53.9395C202.283 54.0378 202.487 54.206 202.628 54.4219C202.678 54.5366 202.702 54.661 202.698 54.7861C202.695 54.9112 202.663 55.0339 202.606 55.1454C204.874 54.9814 207.372 55.6543 208.536 57.5862C209.155 58.6136 209.31 59.8508 209.418 61.0471C209.437 61.2665 209.454 61.486 209.471 61.7079C210.298 61.0302 211.286 60.572 212.26 60.1258C212.609 59.9666 213.01 59.8026 213.366 59.9473C213.512 60.0058 213.635 60.1088 213.718 60.2415C213.874 60.0625 214.048 59.9007 214.239 59.7592C214.423 59.6288 214.64 59.5527 214.866 59.5397C214.87 59.5256 214.876 59.5119 214.882 59.4987C215.164 58.6863 215.393 57.8565 215.567 57.0146C214.787 56.1502 214.259 55.0882 214.041 53.9444C213.31 53.3554 212.652 52.6818 212.079 51.9378C210.279 52.5238 208.321 52.9266 206.706 52.0246C205.299 51.2383 204.537 49.5694 204.537 47.9559C204.537 47.3385 204.636 46.7187 204.554 46.1085C204.472 45.4983 204.156 44.8664 203.59 44.63C203.245 44.4878 202.842 44.5046 202.527 44.3069C202.119 44.0657 201.982 43.5303 201.91 43.0552C201.7 41.6611 201.76 40.2285 201.428 38.8611C201.291 38.3177 201.088 37.7929 200.825 37.2982C200.783 37.5779 200.722 37.8543 200.642 38.1255C200.531 38.7525 200.801 39.423 200.594 40.0259C200.519 40.238 200.397 40.4302 200.237 40.5879C200.155 41.1957 200.394 41.8372 200.193 42.416C199.875 43.277 198.95 43.5062 198.222 43.9162Z" fill="#F2F2F2"/>
<path d="M159.246 132.219V138.007H35.1099V132.219C35.1099 131.771 35.2876 131.342 35.6041 131.025C35.9205 130.709 36.3497 130.531 36.7971 130.531H157.558C158.006 130.531 158.435 130.709 158.751 131.025C159.068 131.342 159.246 131.771 159.246 132.219Z" fill="#3F3D56"/>
<path d="M112.187 46.1905C113.108 47.1383 113.993 48.2333 114.166 49.5429C112.204 50.0566 110.196 49.0919 108.362 48.2309C102.686 45.5599 96.6914 43.6253 90.525 42.4739C90.0429 42.3847 89.5271 42.2858 89.1631 41.953C88.4762 41.3235 88.6015 39.7365 89.2403 39.0829C89.9296 38.3787 91.2047 38.48 92.1327 38.4294C95.8342 38.2417 99.5336 38.8358 102.99 40.173C106.447 41.5101 109.584 43.5604 112.197 46.1905H112.187Z" fill="#192534"/>
<path d="M153.06 137.998H103.756C103.098 136.495 102.58 134.936 102.208 133.338C102.083 132.841 101.967 132.34 101.851 131.84C101.75 131.401 101.654 130.96 101.562 130.521C101.283 129.201 101.042 127.875 100.839 126.544C100.645 125.29 100.484 124.032 100.357 122.77C100.232 121.562 100.134 120.351 100.065 119.135C100.065 119.101 100.065 119.068 100.065 119.031C100.036 118.455 100.065 117.825 100.461 117.418C100.808 117.068 101.338 116.991 101.832 116.957C105.93 116.677 109.912 118.163 114 117.944C115.109 117.879 116.001 117.702 117.032 117.915C117.195 117.945 117.356 117.986 117.514 118.038C117.755 118.112 117.979 118.192 118.208 118.279C119.778 118.841 121.241 119.55 122.928 119.866C125.801 120.408 128.749 120.302 131.666 120.512C131.907 120.527 132.148 120.546 132.389 120.57C132.685 120.594 132.982 120.626 133.276 120.662C135.775 120.993 138.229 121.608 140.589 122.495C141.862 122.955 143.115 123.476 144.352 124.029C144.706 124.188 145.058 124.347 145.41 124.511C146.037 124.803 146.673 125.111 147.295 125.447C147.536 125.575 147.777 125.705 148.003 125.842C149.876 126.93 151.568 128.281 152.554 130.114C152.629 130.249 152.696 130.386 152.762 130.526C152.827 130.666 152.875 130.784 152.928 130.917C153.788 133.152 153.487 135.564 153.06 137.998Z" fill="#202F42"/>
<path opacity="0.1" d="M153.06 137.998H103.756C103.098 136.495 102.58 134.936 102.208 133.338C102.083 132.841 101.967 132.34 101.851 131.84C101.75 131.401 101.654 130.96 101.562 130.521C101.283 129.201 101.042 127.875 100.839 126.544C100.645 125.29 100.484 124.032 100.357 122.77C100.232 121.562 100.134 120.351 100.065 119.135C100.065 119.101 100.065 119.068 100.065 119.031C100.036 118.455 100.065 117.825 100.461 117.418C100.808 117.068 101.338 116.991 101.832 116.957C105.93 116.677 109.912 118.163 114 117.944C115.109 117.879 116.001 117.702 117.032 117.915C117.195 117.945 117.356 117.986 117.514 118.038C117.755 118.112 117.979 118.192 118.208 118.279C119.778 118.841 121.241 119.55 122.928 119.866C125.801 120.408 128.749 120.302 131.666 120.512C131.907 120.527 132.148 120.546 132.389 120.57C132.685 120.594 132.982 120.626 133.276 120.662C135.775 120.993 138.229 121.608 140.589 122.495C141.862 122.955 143.115 123.476 144.352 124.029C144.706 124.188 145.058 124.347 145.41 124.511C146.037 124.803 146.673 125.111 147.295 125.447C147.536 125.575 147.777 125.705 148.003 125.842C149.876 126.93 151.568 128.281 152.554 130.114C152.629 130.249 152.696 130.386 152.762 130.526C152.827 130.666 152.875 130.784 152.928 130.917C153.788 133.152 153.487 135.564 153.06 137.998Z" fill="black"/>
<path d="M108.061 137.998H52.489C51.2404 136.623 50.4233 134.831 50.6257 133.005C50.6984 132.246 50.8257 131.493 51.0066 130.753C51.0259 130.673 51.0475 130.596 51.0692 130.511C51.4254 129.109 52.3099 127.899 53.5375 127.135C55.7261 125.729 58.3583 125.179 60.7687 124.267C62.0631 123.785 63.3117 123.175 64.6061 122.69C66.4678 122.018 68.3897 121.527 70.3452 121.224C70.5622 121.187 70.7815 121.151 70.9985 121.12C71.2154 121.088 71.4444 121.05 71.6685 121.019C72.8737 120.845 74.0789 120.703 75.2962 120.563C77.9476 120.252 80.6401 119.943 83.3084 120.179C85.4403 120.401 87.5388 120.872 89.561 121.583C91.0843 122.092 92.5884 122.683 94.0829 123.271C96.4137 124.192 98.7639 125.135 100.844 126.517C101.025 126.638 101.201 126.759 101.377 126.886C102.761 127.892 103.975 129.114 104.973 130.504C105.552 131.301 106.061 132.147 106.494 133.032C107.26 134.6 107.788 136.273 108.061 137.998Z" fill="#202F42"/>
<path d="M92.2148 40.764C91.3036 42.7633 89.7586 44.5746 87.688 45.3102C86.5865 45.7009 85.3982 45.7708 84.2749 46.0916C83.1517 46.4124 82.0188 47.0756 81.6235 48.173C81.4783 48.6537 81.4084 49.1541 81.4162 49.6562C81.245 54.3713 81.1052 59.272 82.9878 63.5988C84.6148 67.3322 87.5964 70.2818 90.542 73.094C93.9888 76.3836 97.6382 79.7191 102.172 81.1903C104.824 82.0465 107.945 82.1406 110.139 80.4354C111.04 79.7336 111.71 78.7858 112.368 77.85C113.814 75.7879 115.285 73.6969 116.196 71.3382C118.064 66.5146 117.435 61.1412 116.777 56.0161C116.773 55.7118 116.658 55.4193 116.454 55.1937C116.198 54.979 115.825 55.008 115.49 55.0273C113.144 55.1672 110.584 53.9637 109.799 51.7497C109.461 50.7849 109.471 49.7527 109.488 48.7397L109.579 42.8984C109.579 42.2689 109.596 41.6177 109.36 41.0317C108.948 40.0139 107.914 39.4182 106.923 38.9262C103.729 37.3274 100.399 36.0151 96.9729 35.0046C95.4736 34.5633 94.3335 33.8277 93.6658 35.4388C92.9596 37.1149 92.9909 39.0588 92.2148 40.764Z" fill="#FBBEBE"/>
<path opacity="0.1" d="M92.2148 40.764C91.3036 42.7633 89.7586 44.5746 87.688 45.3102C86.5865 45.7009 85.3982 45.7708 84.2749 46.0916C83.1517 46.4124 82.0188 47.0756 81.6235 48.173C81.4783 48.6537 81.4084 49.1541 81.4162 49.6562C81.245 54.3713 81.1052 59.272 82.9878 63.5988C84.6148 67.3322 87.5964 70.2818 90.542 73.094C93.9888 76.3836 97.6382 79.7191 102.172 81.1903C104.824 82.0465 107.945 82.1406 110.139 80.4354C111.04 79.7336 111.71 78.7858 112.368 77.85C113.814 75.7879 115.285 73.6969 116.196 71.3382C118.064 66.5146 117.435 61.1412 116.777 56.0161C116.773 55.7118 116.658 55.4193 116.454 55.1937C116.198 54.979 115.825 55.008 115.49 55.0273C113.144 55.1672 110.584 53.9637 109.799 51.7497C109.461 50.7849 109.471 49.7527 109.488 48.7397L109.579 42.8984C109.579 42.2689 109.596 41.6177 109.36 41.0317C108.948 40.0139 107.914 39.4182 106.923 38.9262C103.729 37.3274 100.399 36.0151 96.9729 35.0046C95.4736 34.5633 94.3335 33.8277 93.6658 35.4388C92.9596 37.1149 92.9909 39.0588 92.2148 40.764Z" fill="black"/>
<path d="M108.024 45.508C117.876 45.508 125.861 37.5176 125.861 27.6608C125.861 17.8041 117.876 9.8136 108.024 9.8136C98.1734 9.8136 90.1875 17.8041 90.1875 27.6608C90.1875 37.5176 98.1734 45.508 108.024 45.508Z" fill="#FBBEBE"/>
<path d="M109.719 55.6423L107.726 60.5937C107.275 61.7127 106.817 62.8439 106.123 63.8303C104.206 66.5484 100.432 67.7928 97.2838 66.7461C94.3117 65.7645 91.6748 62.9813 88.6063 63.6494C87.0155 63.9967 85.7476 65.2749 85.0389 66.7413C84.3303 68.2077 84.1037 69.8573 83.9518 71.4805C83.2506 78.9881 83.966 86.5608 86.0609 93.804C86.2779 94.5516 86.543 95.3354 87.1191 95.8516C87.8229 96.469 88.8329 96.5606 89.7705 96.6137C94.1093 96.8726 98.456 97.0253 102.811 97.0719C105.486 97.1033 108.174 97.0936 110.816 96.6788C113.458 96.264 115.986 95.4729 118.592 94.952C121.029 94.4696 123.523 94.2453 125.905 93.5435C126.293 93.4301 126.703 93.2854 126.941 92.9622C127.126 92.6539 127.21 92.2957 127.182 91.9372C127.182 90.548 126.751 89.1975 126.283 87.8903C125.078 84.5548 123.67 81.2723 123 77.7921C122.077 73.0047 122.62 68.0726 122.518 63.196C122.485 61.4498 122.364 59.6748 121.764 58.0323C121.164 56.3899 120.028 54.8801 118.43 54.1735C115.675 52.9459 111.038 52.396 109.719 55.6423Z" fill="#650C71"/>
<path d="M100.552 79.0728C99.2796 77.9923 99.3471 76.0653 99.1952 74.4012C98.918 71.2803 97.561 68.3717 96.2256 65.5355L92.2364 57.0556C90.5684 53.5199 88.8618 49.4947 90.2382 45.8312C90.6986 44.5963 91.4868 43.4966 91.8917 42.2424C92.2967 40.9883 92.2147 39.4206 91.1879 38.5934C89.8814 37.5419 87.9507 38.2582 86.4731 39.0565C83.7566 40.5308 81.1375 42.1783 78.6321 43.9886C77.9523 44.4709 77.2389 45.0425 77.0171 45.8529C76.8797 46.3569 76.952 46.9092 76.7592 47.3964C76.3832 48.3611 75.2117 48.6505 74.2114 48.8773C70.0886 49.8281 66.203 51.6104 62.7921 54.1151C59.3812 56.6198 56.5167 59.7943 54.3738 63.4444C53.6628 64.629 53.0964 65.8946 52.6865 67.2141C52.2044 68.9023 52.0791 70.6557 51.9634 72.3994C51.6549 76.8853 51.3576 81.3688 51.0715 85.8499C50.9438 87.8348 50.8184 89.868 51.3608 91.7805C51.7103 93.0105 52.3249 94.161 52.5853 95.4151C53.1131 98.0222 51.9995 100.685 50.6087 102.952C49.2179 105.219 47.5066 107.346 46.634 109.847C46.1212 111.439 45.8578 113.1 45.853 114.772C45.7247 120.415 47.2878 125.968 50.3412 130.714C53.3036 131.151 55.5211 128.203 58.2425 126.952C62.2317 125.121 67.2694 126.587 71.0176 124.325C71.9336 123.773 72.7266 123.02 73.6956 122.565C74.5754 122.152 75.5516 122.005 76.5133 121.865C80.0663 121.351 83.665 120.876 87.2348 121.262C92.2966 121.81 97.5296 124.06 102.29 122.244C103.464 121.795 104.539 121.117 105.718 120.681C110.056 119.072 114.877 120.994 119.498 120.64C118.775 120.601 118.452 119.781 118.317 119.06C118.013 117.46 117.745 115.853 117.512 114.237C117.307 112.835 117.131 111.396 117.452 110.018C117.746 108.74 118.45 107.607 119.04 106.435C120.903 102.744 121.692 98.6059 123.29 94.7904C124.049 92.9719 124.977 91.2355 125.878 89.4845C129.518 82.2973 132.353 74.7298 134.332 66.9198C132.227 63.1406 130.321 59.2021 128.216 55.4252C127.607 54.3303 126.98 53.2161 126.047 52.3695C124.712 51.1443 122.902 50.6113 121.159 50.1169C119.662 49.69 118.143 49.2607 116.579 49.2583C115.015 49.2559 110.613 47.6207 109.558 48.7615C108.468 49.9384 110.919 53.7394 110.864 55.3408C110.809 56.9423 110.985 58.563 110.719 60.1451C110.334 62.4532 109.032 64.5104 108.442 66.7727C108.208 67.8434 108.029 68.9253 107.904 70.0141C107.51 72.4491 106.873 74.8383 106.002 77.1458C105.843 77.6317 105.608 78.0892 105.306 78.5012C104.163 79.9001 102.326 79.3695 100.552 79.0728Z" fill="#192534"/>
<path d="M135.966 104.486C136.424 105.045 137.051 105.429 137.617 105.875C139.847 107.624 141.158 110.284 143.127 112.322C144.12 113.352 145.275 114.213 146.333 115.175C148.794 117.418 150.701 120.189 152.586 122.934C153.068 123.633 153.55 124.349 153.791 125.162C154.213 126.549 153.87 128.095 153.101 129.325C152.333 130.555 151.173 131.495 149.922 132.233C149.269 132.621 148.588 132.959 147.885 133.246C146.439 133.835 145.06 132.241 145.875 130.909C146.392 130.075 146.865 129.213 147.292 128.329C147.565 127.839 147.721 127.292 147.75 126.732C147.731 125.748 146.955 124.914 146.063 124.501C145.171 124.089 144.166 124.019 143.19 123.898C137.669 123.231 132.417 121.14 127.946 117.83C125.416 115.949 122.976 113.192 123.379 110.064C123.678 107.73 125.524 105.873 127.551 104.676C129.198 103.71 131.009 103.056 132.893 102.747C133.423 102.66 134.753 102.296 135.228 102.663C135.65 102.976 135.571 104.004 135.966 104.486Z" fill="#FBBEBE"/>
<path opacity="0.1" d="M135.966 104.486C136.424 105.045 137.051 105.429 137.617 105.875C139.847 107.624 141.158 110.284 143.127 112.322C144.12 113.352 145.275 114.213 146.333 115.175C148.794 117.418 150.701 120.189 152.586 122.934C153.068 123.633 153.55 124.349 153.791 125.162C154.213 126.549 153.87 128.095 153.101 129.325C152.333 130.555 151.173 131.495 149.922 132.233C149.269 132.621 148.588 132.959 147.885 133.246C146.439 133.835 145.06 132.241 145.875 130.909C146.392 130.075 146.865 129.213 147.292 128.329C147.565 127.839 147.721 127.292 147.75 126.732C147.731 125.748 146.955 124.914 146.063 124.501C145.171 124.089 144.166 124.019 143.19 123.898C137.669 123.231 132.417 121.14 127.946 117.83C125.416 115.949 122.976 113.192 123.379 110.064C123.678 107.73 125.524 105.873 127.551 104.676C129.198 103.71 131.009 103.056 132.893 102.747C133.423 102.66 134.753 102.296 135.228 102.663C135.65 102.976 135.571 104.004 135.966 104.486Z" fill="black"/>
<path d="M115.871 17.5771C113.46 20.0468 109.589 20.1505 106.137 20.0902L106.251 18.7372L101.396 20.4785C102.655 19.5427 103.734 18.3874 104.583 17.0682C103.954 16.5159 102.968 16.5328 102.22 16.9139C101.473 17.295 100.924 17.9678 100.454 18.6624C99.0766 20.7261 98.2 23.083 97.8937 25.5454C97.5874 28.0077 97.8598 30.5077 98.6892 32.8462C97.7251 33.3816 96.4957 33.2248 95.5702 32.6412C94.6446 32.0575 93.9986 31.1073 93.5599 30.104C93.273 29.4479 92.9742 28.6714 92.2896 28.4663C91.7159 28.2951 91.0844 28.6448 90.7662 29.1537C90.4807 29.6849 90.3654 30.2912 90.436 30.8902C90.5252 32.2938 91.5496 33.6252 91.7545 35.0143C91.9594 36.4035 94.0323 37.484 92.9597 38.3908C92.6512 38.6537 89.4863 39.37 89.0862 39.3073C88.5438 39.2229 88.1847 38.6996 87.9581 38.2003C86.8782 35.8271 87.2663 33.0536 86.6276 30.526C86.1142 28.4929 84.9572 26.6889 83.817 24.9283C83.5109 24.4153 83.1496 23.9373 82.7396 23.5029C82.3612 23.1315 81.8935 22.8107 81.7103 22.3139C81.5272 21.8171 81.8646 21.108 82.3877 21.1876C81.5434 20.3708 80.635 19.6231 79.6711 18.9519C80.6257 17.7427 81.5593 16.5184 82.472 15.2787C82.7854 14.8542 83.1108 14.314 82.8818 13.8316C82.748 13.6106 82.5596 13.4279 82.3346 13.301L79.8423 11.6128C79.7868 10.4672 82.1177 10.8892 82.4769 9.80636C82.5401 9.51856 82.5183 9.21857 82.4142 8.94294L81.5657 5.8462L84.7884 7.30775C85.1789 7.48622 85.5959 7.6671 86.0226 7.6044C86.8734 7.48139 87.2832 6.47327 87.3266 5.61226C87.37 4.75125 87.2326 3.82513 87.6592 3.07506C89.1183 3.01718 90.5766 3.02763 92.0341 3.10641C92.1261 2.37252 91.9319 1.63138 91.4918 1.0371L102.261 0.438976C104.101 0.337681 105.99 0.243624 107.738 0.822453C108.331 1.02022 108.929 1.30481 109.55 1.23487C110.172 1.16492 110.799 0.590921 110.621 -0.00720215C112.235 0.904615 113.711 2.0415 115.005 3.3693C115.355 3.78559 115.777 4.13458 116.251 4.39913C116.733 4.62584 117.394 4.61619 117.76 4.21583C118.054 3.89507 118.201 3.33553 118.635 3.31624C118.905 3.31624 119.117 3.52847 119.289 3.74312C119.904 4.53135 120.406 5.40255 120.778 6.33097C121.551 6.22675 122.308 6.02747 123.032 5.73767C122.28 6.37197 122.261 7.55375 122.62 8.47023C122.979 9.3867 123.63 10.1585 124.066 11.0364C124.5 11.9792 124.792 12.9814 124.931 14.0101C125.151 15.298 125.153 16.9211 124.01 17.553C123.017 18.1029 121.786 17.5168 120.877 16.8295C118.375 14.9531 117.898 15.503 115.871 17.5771Z" fill="#650C71"/>
<path d="M128.474 131.524L145.176 130.017C145.847 129.957 146.469 129.638 146.911 129.129C147.352 128.619 147.579 127.958 147.543 127.284L147.531 127.043C147.503 126.507 147.311 125.992 146.979 125.57C146.648 125.148 146.194 124.839 145.68 124.684L142.98 123.874C142.737 123.801 142.484 123.764 142.231 123.763H136.106C135.938 123.764 135.771 123.78 135.607 123.811C134.312 124.065 128.356 125.237 128.134 125.451C128.016 125.572 127.308 126.103 126.623 126.609C126.214 126.912 125.902 127.328 125.726 127.807C125.551 128.285 125.52 128.805 125.637 129.301L125.688 129.523C125.831 130.137 126.192 130.679 126.705 131.048C127.218 131.416 127.846 131.585 128.474 131.524Z" fill="#464A5F"/>
<path d="M120.318 126.3L127.067 124.371L139.601 122.683C139.601 122.683 147.555 120.512 148.278 127.265L147.603 128.408C147.603 128.408 148.278 124.13 140.083 125.336C140.083 125.336 125.348 124.841 125.968 130.642C125.968 130.637 120.8 129.677 120.318 126.3Z" fill="#650C71"/>
<path d="M129.477 122.203C130.409 122.203 131.164 122.095 131.164 121.962C131.164 121.828 130.409 121.72 129.477 121.72C128.545 121.72 127.79 121.828 127.79 121.962C127.79 122.095 128.545 122.203 129.477 122.203Z" fill="#650C71"/>
<path d="M144.542 122.082H143.337V124.253H144.542V122.082Z" fill="#650C71"/>
<path d="M130.08 122.082H128.875V124.253H130.08V122.082Z" fill="#650C71"/>
<path d="M145.495 122.279C145.614 121.968 144.904 121.407 143.909 121.026C142.915 120.645 142.012 120.588 141.893 120.899C141.774 121.21 142.484 121.771 143.478 122.152C144.473 122.533 145.375 122.59 145.495 122.279Z" fill="#650C71"/>
<path d="M75.4913 125.946C76.0072 126.484 76.5326 127.031 77.1955 127.369C77.8514 127.66 78.5495 127.845 79.2636 127.916C86.5655 129.042 93.8417 130.301 101.092 131.693C103.134 132.089 105.19 132.499 107.118 133.292C108.102 133.7 109.047 134.206 110.011 134.633C115.555 137.067 121.822 136.91 127.869 136.707C129.053 136.669 130.28 136.621 131.348 136.126C132.145 135.762 132.876 135.07 132.948 134.197C133.073 132.68 131.35 131.785 129.974 131.131C126.688 129.581 123.825 127.058 122.094 123.86C121.786 123.295 121.535 122.536 121.969 122.058C122.294 121.701 122.846 121.699 123.331 121.718C125.355 121.797 127.38 121.776 129.405 121.655C130.453 121.59 131.842 121.093 131.675 120.059C131.603 119.615 131.237 119.285 130.89 118.995C129.065 117.461 126.994 115.882 124.611 115.927C123.36 115.952 122.166 116.429 120.995 116.832C114.684 118.973 107.89 119.092 101.23 119.048C99.6002 119.048 97.9587 119.017 96.363 118.684C95.0524 118.374 93.7684 117.96 92.5232 117.447C88.4834 115.906 84.4267 114.355 80.6858 112.192C79.1985 111.333 77.5402 110.339 75.8818 110.781C75.1378 111.022 74.4608 111.435 73.9053 111.987C71.9312 113.771 70.2656 115.956 70.8272 118.696C71.3985 121.576 73.5293 123.896 75.4913 125.946Z" fill="#FBBEBE"/>
<path d="M74.4164 79.3694C75.0383 81.3833 75.4022 83.5153 76.4725 85.3314C77.6078 87.2608 79.4975 88.7561 80.1531 90.8954C80.6159 92.41 80.3942 94.0307 80.3942 95.6201C80.3942 97.4217 80.7341 99.2787 81.7296 100.779C82.2309 101.536 82.8841 102.178 83.4554 102.884C85.9887 106.02 86.7697 110.207 87.0855 114.22C84.6751 112.855 81.8549 111.446 79.2444 112.384C78.1887 112.765 77.2968 113.499 76.4676 114.258C74.8586 115.728 73.3877 117.343 72.0735 119.082C71.3841 119.991 70.7068 121.103 71.0057 122.203C69.5787 120.129 68.1325 118.04 67.0237 115.758C66.2379 114.128 65.6281 112.406 64.6856 110.858C63.4997 108.911 61.8293 107.312 60.424 105.518C57.2664 101.486 55.4947 96.4931 54.6342 91.4549C53.7737 86.4167 53.7376 81.2555 53.7641 76.1328C53.7641 74.4446 53.8002 72.6888 54.5113 71.1525C54.9331 70.2384 55.5767 69.4474 56.2154 68.6684C57.0253 67.6771 57.8593 66.6666 58.9609 66.0154C62.4656 63.9509 66.2258 67.3732 68.5688 69.7151C71.2709 72.4116 73.2777 75.7248 74.4164 79.3694Z" fill="#192534"/>
<path d="M134.836 67.7929C135.16 68.0893 135.423 68.4476 135.607 68.8469C135.79 69.3292 135.742 69.8598 135.703 70.3735C135.475 73.4323 135.692 76.5081 136.347 79.5046C136.74 81.3158 137.236 83.4117 136.082 84.8611C135.903 85.0516 135.742 85.2574 135.6 85.4762C135.065 86.4795 136.053 87.572 136.805 88.433C139.09 91.086 139.456 95.2367 137.685 98.2634C137.35 98.8399 136.94 99.3849 136.752 100.022C136.625 100.545 136.574 101.085 136.602 101.623L136.612 105.658C134.079 105.318 131.246 105.053 129.21 106.599C127.491 107.901 126.811 110.168 125.353 111.745C123.938 113.265 121.737 114.244 121.185 116.246L121.214 107.908C121.25 106.801 121.191 105.692 121.036 104.594C120.747 102.87 119.997 101.256 119.558 99.5634C118.985 97.3494 118.949 95.0365 118.915 92.7477C118.859 88.9684 118.806 85.1481 119.59 81.4509C119.91 79.9459 120.366 78.4723 120.718 76.9746C121.357 74.2734 121.682 71.4613 122.803 68.9241C123.924 66.3869 126.124 64.086 128.887 63.8135C131.796 63.5217 133.03 65.9045 134.836 67.7929Z" fill="#192534"/>
<path d="M145.626 121.902C146.433 121.435 146.385 119.842 145.52 118.342C144.655 116.843 143.299 116.005 142.492 116.471C141.685 116.937 141.732 118.531 142.598 120.03C143.463 121.53 144.818 122.368 145.626 121.902Z" fill="#FBBEBE"/>
<path opacity="0.1" d="M145.626 121.902C146.433 121.435 146.385 119.842 145.52 118.342C144.655 116.843 143.299 116.005 142.492 116.471C141.685 116.937 141.732 118.531 142.598 120.03C143.463 121.53 144.818 122.368 145.626 121.902Z" fill="black"/>
</g>
<defs>
<clipPath id="clip0_116_1463">
<rect width="251" height="138" fill="white"/>
</clipPath>
</defs>
</svg>
